<?xml version="1.0" encoding="UTF-8" standalone="no"?>
<!-- Created with Inkscape (http://www.inkscape.org/) -->
<svg
   xmlns:dc="http://purl.org/dc/elements/1.1/"
   xmlns:cc="http://web.resource.org/cc/"
   xmlns:rdf="http://www.w3.org/1999/02/22-rdf-syntax-ns#"
   xmlns:svg="http://www.w3.org/2000/svg"
   xmlns="http://www.w3.org/2000/svg"
   xmlns:sodipodi="http://sodipodi.sourceforge.net/DTD/sodipodi-0.dtd"
   xmlns:inkscape="http://www.inkscape.org/namespaces/inkscape"
   id="svg2477"
   sodipodi:version="0.32"
   inkscape:version="0.45.1"
   width="1890"
   height="419"
   version="1.0"
   sodipodi:docbase="C:\Users\Chris\Desktop\SVGs"
   sodipodi:docname="Eidos logo.svg"
   inkscape:output_extension="org.inkscape.output.svg.inkscape">
  <metadata
     id="metadata2482">
    <rdf:RDF>
      <cc:Work
         rdf:about="">
        <dc:format>image/svg+xml</dc:format>
        <dc:type
           rdf:resource="http://purl.org/dc/dcmitype/StillImage" />
      </cc:Work>
    </rdf:RDF>
  </metadata>
  <defs
     id="defs2480" />
  <sodipodi:namedview
     inkscape:window-height="974"
     inkscape:window-width="1280"
     inkscape:pageshadow="2"
     inkscape:pageopacity="0.0"
     guidetolerance="10.0"
     gridtolerance="10.0"
     objecttolerance="10.0"
     borderopacity="1.0"
     bordercolor="#666666"
     pagecolor="#ffffff"
     id="base"
     inkscape:zoom="0.35978836"
     inkscape:cx="1142.0349"
     inkscape:cy="799.85965"
     inkscape:window-x="-8"
     inkscape:window-y="-8"
     inkscape:current-layer="svg2477" />
  <path
     style="fill:#5e3989;fill-opacity:1"
     d="M 1173.3186,416.5905 C 1170.3616,414.41104 1167,405.03264 1167,398.96249 L 1167,394 L 1178.8001,394 C 1192.3433,394 1212.2357,392.59073 1229.2806,390.42373 C 1321.5491,378.69315 1387.8892,341.41265 1416.8804,285 C 1426.3641,266.54612 1430.7324,252.49864 1433.4552,231.69878 C 1437.6955,199.30646 1432.7604,166.42266 1419.4684,138.5 C 1391.776,80.326238 1326.3026,41.616117 1234.3736,29.065561 C 1216.136,26.575678 1198.1613,25.024023 1187.3967,25.010317 C 1182.9399,25.004643 1176.4714,24.705042 1173.0223,24.344538 L 1166.7511,23.689076 L 1167.2427,17.565126 C 1167.805,10.560697 1170.8607,3.7925802 1174.5534,1.3730842 C 1176.8061,-0.10298181 1179.7136,-0.20970898 1201.2905,0.39163994 C 1271.1671,2.3391096 1327.006,7.5849681 1389.5,18.073247 C 1543.8611,43.979447 1703.7959,100.64489 1835.9543,176.2535 C 1861.3397,190.77665 1889,208.13689 1889,209.54622 C 1889,209.81312 1884.6125,212.86518 1879.25,216.32857 C 1824.7812,251.50746 1747.6886,290.54969 1674.979,319.77809 C 1522.8393,380.93647 1360.5471,414.94233 1208,417.62644 C 1179.1315,418.13439 1175.2563,418.01864 1173.3186,416.5905 z M 828,291.5807 C 777.63174,285.7825 739.87386,268.88439 728.38691,247 L 725.5,241.5 L 725.5,210 L 725.5,178.5 L 728.28921,172.8202 C 741.45178,146.01656 790.49184,127.10727 851.5,125.3115 C 903.4712,123.78174 949.42027,134.13905 976.55086,153.49904 C 984.47009,159.15009 989.45318,164.86515 993.11819,172.5 L 995.99842,178.5 L 995.99921,207.71249 C 995.99994,234.80438 995.84977,237.32649 993.93055,242.45608 C 985.52151,264.93125 950.24562,283.11877 900.5,290.62693 C 886.543,292.73348 842.99113,293.30642 828,291.5807 z M 893.77725,267.14495 C 912.89362,263.02377 926.94218,256.94038 935.21658,249.20065 C 944.03529,240.95177 944.00318,241.09807 943.97804,209.28984 C 943.95274,177.28154 943.80749,176.6086 935.26623,168.92928 C 926.2924,160.86103 911.90639,154.70489 893.07253,150.87354 C 879.08165,148.02738 852.91762,147.32651 837.38788,149.38188 C 808.00713,153.27043 784.8475,164.39859 778.86917,177.5 C 777.24385,181.06187 777.04152,184.54388 777.02196,209.28984 C 776.99678,241.15814 777.01266,241.2297 785.87893,249.20124 C 795.06406,257.45946 810.78779,264.07966 829.126,267.40966 C 842.09921,269.76544 843.22054,269.83098 864.5,269.47735 C 879.7502,269.22391 886.70326,268.66999 893.77725,267.14495 z M 73.049805,287.91374 C 40.701196,284.79865 10.618879,271.4139 2.7002098,256.61257 C 0.53113588,252.5582 0.5,251.89149 0.5,209.5 C 0.5,167.10851 0.53113588,166.4418 2.7002098,162.38743 C 9.4986878,149.67993 33.709655,137.43861 63.10957,131.84384 C 74.166366,129.73975 77.183196,129.66469 166.10574,129.2813 L 257.71148,128.88635 L 260.83929,131.51822 C 264.28035,134.41368 267,141.7697 267,148.1815 L 267,152 L 177.75,152.01736 C 81.993528,152.03599 81.891548,152.04083 69,157.17785 C 61.466448,160.17981 56.725737,163.26147 54.43212,166.64758 C 52.750462,169.13024 52.5,171.31483 52.5,183.5 L 52.5,197.5 L 158.75,197.75454 L 265,198.00909 L 265,209 L 265,219.99091 L 158.75,220.24546 L 52.5,220.5 L 52.191799,232 C 52.018036,238.48366 52.368131,245.15389 52.994393,247.29156 C 54.526793,252.52222 58.907225,256.36004 67.339773,259.85994 C 82.287219,266.06383 81.13215,266 178.45784,266 L 267,266 L 267,269.84107 C 267,275.57303 264.46752,282.90257 261.36991,286.13578 L 258.62582,289 L 170.06291,288.86374 C 121.35331,288.78879 77.697412,288.36129 73.049805,287.91374 z M 323,209 L 323,129 L 348.83967,129 L 374.67934,129 L 375.33967,154.66221 C 375.70285,168.77643 376,204.77643 376,234.66221 L 376,289 L 349.5,289 L 323,289 L 323,209 z M 499.76826,287.90093 C 464.90938,284.48514 433.59503,271.02915 425.36939,255.93121 C 423.62572,252.73075 423.5,249.60824 423.5,209.5 C 423.5,170.36239 423.65903,166.18085 425.27051,162.94689 C 433.07232,147.29 465.0991,133.38568 501,130.06919 C 507.66644,129.45335 538.87444,129.0054 575.25,129.00342 L 638,129 L 638,100.5 L 638,72 L 646.75,71.996942 C 651.5625,71.99526 663.2625,71.69943 672.75,71.339542 L 690,70.685199 L 690,175.12009 C 690,291.8036 690.64482,282.0077 682.68392,286.26339 L 678.5,288.5 L 593.5,288.62827 C 546.75,288.69882 504.57072,288.37151 499.76826,287.90093 z M 638,208.95324 L 638,151.90648 L 572.25,152.21256 L 506.5,152.51865 L 498.5,155.2279 C 486.6788,159.23122 479.9706,163.56677 477.25,168.96189 C 475.04354,173.33743 475,174.10627 475,208.69165 C 475,248.80401 475.12581,249.59708 482.30718,254.75386 C 484.61323,256.40978 489.22351,258.91084 492.55224,260.31176 C 505.33114,265.68986 507.40302,265.83033 575.25,265.91847 L 638,266 L 638,208.95324 z M 1038.6301,286.13578 C 1035.5325,282.90257 1033,275.57303 1033,269.84107 L 1033,266 L 1120.75,265.99245 C 1176.9038,265.98761 1210.8169,265.60897 1214.9346,264.94087 C 1228.7616,262.69745 1242.0563,256.49244 1245.6086,250.62443 C 1247.2161,247.96895 1247.5,245.47377 1247.5,234 L 1247.5,220.5 L 1146,220 C 1035.7434,219.45686 1040.7223,219.72227 1035.0876,214.08765 C 1033.0944,212.09445 1033.001,210.99338 1033.022,189.75 C 1033.0461,165.2614 1033.6151,162.39696 1039.6657,156.30415 C 1049.9506,145.94742 1071.8405,136.46152 1096.1096,131.84446 C 1107.1577,129.74261 1110.2225,129.66559 1198.0961,129.2814 L 1288.6921,128.88531 L 1291.7915,132.41532 C 1295.2676,136.37442 1296.9861,141.4394 1296.9944,147.75 L 1297,152 L 1209.4578,152 C 1133.5879,152 1120.8964,152.21054 1114.2708,153.5791 C 1103.6268,155.77768 1094.7859,159.53127 1089.766,163.98317 L 1085.5,167.76646 L 1085.178,182.88323 L 1084.8559,198 L 1185.2498,198 C 1294.7544,198 1291.6904,197.84571 1297.1235,203.63338 C 1299.4811,206.14488 1299.5,206.34477 1299.5,228.83248 C 1299.5,250.27477 1299.3811,251.72229 1297.2998,255.61257 C 1290.8434,267.68071 1267.2109,280.06536 1240.5,285.37864 C 1224.5668,288.54804 1210.3185,288.99833 1125.9371,288.99916 L 1041.3742,289 L 1038.6301,286.13578 z M 337,101.68196 C 330.83741,100.25267 327.55917,98.714791 324.25,95.700723 C 322.34505,93.965651 322,92.625299 322,86.960545 C 322,78.607496 323.80292,76.008744 331.77276,72.87398 C 336.58702,70.980395 339.41292,70.621295 349.5,70.621295 C 359.58708,70.621295 362.41298,70.980395 367.22724,72.87398 C 374.80898,75.856096 377,78.731775 377,85.7006 C 377,94.17306 374.38909,97.53819 365.5,100.52262 C 358.98236,102.71085 344.05447,103.3181 337,101.68196 z "
     id="path2486" />
</svg>
